<svg xmlns="http://www.w3.org/2000/svg" viewBox="0 0 640 160" width="640" height="160" role="img" aria-label="styx-mcp">
  <defs>
    <linearGradient id="river" x1="20" y1="16" x2="100" y2="110" gradientUnits="userSpaceOnUse">
      <stop offset="0%" stop-color="#00E1FF"/>
      <stop offset="45%" stop-color="#3B82F6"/>
      <stop offset="100%" stop-color="#7B5CFF"/>
    </linearGradient>
    <linearGradient id="riverSoft" x1="20" y1="16" x2="100" y2="110" gradientUnits="userSpaceOnUse">
      <stop offset="0%" stop-color="#00E1FF" stop-opacity="0.35"/>
      <stop offset="100%" stop-color="#7B5CFF" stop-opacity="0.35"/>
    </linearGradient>
  </defs>
  <!-- mark -->
  <g transform="translate(4,8) scale(0.55)">
    <path d="M168 36 C 110 28, 52 52, 52 100 C 52 136, 92 148, 128 160 C 172 176, 204 188, 204 220 C 204 248, 150 252, 96 236"
          fill="none" stroke="url(#riverSoft)" stroke-width="6" stroke-linecap="round" stroke-dasharray="2 10"/>
    <path d="M172 44 C 118 34, 60 56, 60 102 C 60 134, 96 146, 128 158 C 168 172, 196 184, 196 216 C 196 242, 148 248, 100 234"
          fill="none" stroke="url(#river)" stroke-width="28" stroke-linecap="round"/>
    <path d="M168 48 C 120 40, 72 60, 72 102 C 72 130, 102 142, 128 154 C 162 166, 188 180, 188 214 C 188 236, 150 242, 110 230"
          fill="none" stroke="#E0F7FF" stroke-width="6" stroke-linecap="round" opacity="0.5"/>
    <circle cx="172" cy="44" r="9" fill="#00E1FF"/>
    <circle cx="172" cy="44" r="4" fill="#FFFFFF"/>
    <circle cx="60" cy="102" r="8" fill="#38BDF8"/>
    <circle cx="128" cy="158" r="11" fill="#7B5CFF"/>
    <circle cx="128" cy="158" r="5" fill="#FFFFFF"/>
    <circle cx="196" cy="216" r="8" fill="#818CF8"/>
    <circle cx="100" cy="234" r="9" fill="#7B5CFF"/>
    <circle cx="100" cy="234" r="4" fill="#FFFFFF"/>
    <circle cx="196" cy="72" r="4" fill="#00E1FF"/>
    <circle cx="88" cy="72" r="3.5" fill="#38BDF8"/>
  </g>
  <!-- wordmark: styx-mcp with cyan hyphen -->
  <text x="168" y="78"
        font-family="ui-sans-serif, system-ui, -apple-system, 'Segoe UI', Inter, Roboto, sans-serif"
        font-size="58" font-weight="800" fill="#0B1020" letter-spacing="-2">styx</text>
  <text x="300" y="78"
        font-family="ui-sans-serif, system-ui, -apple-system, 'Segoe UI', Inter, Roboto, sans-serif"
        font-size="58" font-weight="800" fill="#00E1FF" letter-spacing="-2">-</text>
  <text x="322" y="78"
        font-family="ui-sans-serif, system-ui, -apple-system, 'Segoe UI', Inter, Roboto, sans-serif"
        font-size="58" font-weight="800" fill="#0B1020" letter-spacing="-2">mcp</text>
  <!-- accent bar + tagline -->
  <rect x="168" y="96" width="3" height="36" rx="1.5" fill="#7B5CFF"/>
  <text x="180" y="112"
        font-family="ui-sans-serif, system-ui, sans-serif"
        font-size="12" font-weight="600" fill="#64748B" letter-spacing="1.6">MCP-NATIVE MULTI-HOP PROXY</text>
  <text x="180" y="130"
        font-family="ui-sans-serif, system-ui, sans-serif"
        font-size="12" font-weight="600" fill="#64748B" letter-spacing="1.6">AND JUMP NETWORK</text>
</svg>
