<svg xmlns="http://www.w3.org/2000/svg" viewBox="0 0 256 256" width="256" height="256" role="img" aria-label="styx-mcp">
  <defs>
    <linearGradient id="bg" x1="0" y1="0" x2="1" y2="1">
      <stop offset="0%" stop-color="#0B1020"/>
      <stop offset="100%" stop-color="#131A2E"/>
    </linearGradient>
    <linearGradient id="river" x1="48" y1="40" x2="208" y2="216" gradientUnits="userSpaceOnUse">
      <stop offset="0%" stop-color="#00E1FF"/>
      <stop offset="45%" stop-color="#3B82F6"/>
      <stop offset="100%" stop-color="#7B5CFF"/>
    </linearGradient>
    <linearGradient id="riverSoft" x1="48" y1="40" x2="208" y2="216" gradientUnits="userSpaceOnUse">
      <stop offset="0%" stop-color="#00E1FF" stop-opacity="0.4"/>
      <stop offset="100%" stop-color="#7B5CFF" stop-opacity="0.4"/>
    </linearGradient>
  </defs>
  <rect width="256" height="256" rx="56" fill="url(#bg)"/>
  <path d="M168 36 C 110 28, 52 52, 52 100 C 52 136, 92 148, 128 160 C 172 176, 204 188, 204 220 C 204 248, 150 252, 96 236"
        fill="none" stroke="url(#riverSoft)" stroke-width="5" stroke-linecap="round" stroke-dasharray="2 9"/>
  <path d="M172 44 C 118 34, 60 56, 60 102 C 60 134, 96 146, 128 158 C 168 172, 196 184, 196 216 C 196 242, 148 248, 100 234"
        fill="none" stroke="url(#river)" stroke-width="26" stroke-linecap="round"/>
  <path d="M168 48 C 120 40, 72 60, 72 102 C 72 130, 102 142, 128 154 C 162 166, 188 180, 188 214 C 188 236, 150 242, 110 230"
        fill="none" stroke="#E0F7FF" stroke-width="5" stroke-linecap="round" opacity="0.45"/>
  <circle cx="172" cy="44" r="8" fill="#00E1FF"/>
  <circle cx="172" cy="44" r="3.5" fill="#FFFFFF"/>
  <circle cx="60" cy="102" r="7" fill="#38BDF8"/>
  <circle cx="128" cy="158" r="10" fill="#7B5CFF"/>
  <circle cx="128" cy="158" r="4.5" fill="#FFFFFF"/>
  <circle cx="196" cy="216" r="7" fill="#818CF8"/>
  <circle cx="100" cy="234" r="8" fill="#7B5CFF"/>
  <circle cx="100" cy="234" r="3.5" fill="#FFFFFF"/>
  <circle cx="196" cy="72" r="3.5" fill="#00E1FF"/>
  <circle cx="88" cy="72" r="3" fill="#38BDF8"/>
</svg>
